<?xml version="1.0" standalone="no"?>
<!DOCTYPE svg PUBLIC "-//W3C//DTD SVG 20010904//EN"
 "http://www.w3.org/TR/2001/REC-SVG-20010904/DTD/svg10.dtd">
<svg version="1.0" xmlns="http://www.w3.org/2000/svg"
 width="300.000000pt" height="300.000000pt" viewBox="0 0 300.000000 300.000000"
 preserveAspectRatio="xMidYMid meet">
<metadata>
Created by potrace 1.11, written by Peter Selinger 2001-2013
</metadata>
<g transform="translate(0.000000,300.000000) scale(0.100000,-0.100000)"
fill="#000000" stroke="none">
<path d="M286 1832 c-3 -3 -6 -364 -6 -803 l0 -798 93 -3 c148 -5 133 -27 132
188 l0 186 79 80 c43 44 82 76 87 71 4 -4 40 -84 79 -178 39 -93 82 -192 94
-220 13 -27 29 -67 36 -87 13 -35 15 -36 69 -40 31 -2 83 -1 116 2 l61 5 -148
349 c-81 192 -148 354 -148 360 0 6 22 34 48 62 26 28 71 77 100 109 30 33 56
55 61 49 4 -5 20 -38 35 -74 41 -96 315 -730 330 -765 7 -16 20 -45 27 -62 13
-31 17 -33 60 -33 46 0 47 1 64 42 9 24 23 57 30 73 7 17 29 68 49 115 19 47
59 144 89 215 30 72 68 161 84 198 15 37 32 68 37 68 5 0 77 -160 160 -355
l151 -356 45 0 45 0 74 172 c41 95 84 196 97 223 51 113 294 677 294 683 0 11
-219 7 -229 -3 -4 -6 -68 -151 -142 -322 -73 -172 -136 -313 -139 -313 -3 0
-63 139 -133 309 -71 169 -133 314 -137 321 -8 13 -142 21 -160 10 -7 -4 -219
-497 -271 -629 -9 -22 -26 12 -135 265 -69 159 -132 306 -141 327 -8 20 -20
37 -27 38 -6 0 -74 1 -151 2 l-140 2 -197 -197 c-109 -109 -199 -192 -199
-185 -1 7 -2 212 -3 457 l-1 445 -107 1 c-59 1 -109 -1 -112 -4z"/>
</g>
</svg>
